<svg width="40" height="40" viewBox="0 0 40 40" fill="none" xmlns="http://www.w3.org/2000/svg">
<g clip-path="url(#clip0_23_15)">
<path d="M0 8.89062L0 31.0469C0 32.125 0.171875 33.1719 0.53125 34.1875C1.0625 35.6562 2 36.9844 3.21875 37.9844C4.4375 39 5.9375 39.6719 7.5 39.9062C8.07813 40 8.65625 40.0156 9.23438 40.0156L30.8438 40.0156C31.5313 40.0156 32.2344 39.9844 32.9063 39.8437C34.4531 39.5312 35.9063 38.7969 37.0781 37.7344C38.25 36.6875 39.125 35.3125 39.5938 33.8281C39.875 32.9219 40 31.9844 40 31.0312C40 30.6094 40 8.82812 39.9844 8.5C39.9062 6.90625 39.3906 5.32812 38.5 4C37.625 2.70312 36.4062 1.64062 35 0.953121C33.7969 0.359371 32.4531 0.0624959 31.1094 0.0624959L8.89062 0.0624959C7.5625 0.0312459 6.25 0.312496 5.0625 0.890621C3.65625 1.5625 2.42188 2.60937 1.54688 3.90625C0.640625 5.23437 0.109375 6.79687 0.03125 8.39062C0 8.54687 0 8.71875 0 8.89062Z" fill="url(#paint0_linear_23_15)"/>
<path d="M32.7188 33.75C32.5 33.6094 32.2813 33.4531 32.0781 33.2813C31.6094 32.8906 31.2031 32.4375 30.8594 31.9375C30.4375 31.3125 30.1719 30.5781 30.1406 29.8281C30.1094 29.2969 30.2031 28.7656 30.3906 28.2656C30.5625 27.7656 30.8125 27.2813 31.0625 26.8125C31.3438 26.2656 31.625 25.7188 31.8594 25.1406C32.1406 24.4531 32.3594 23.7344 32.5156 23C32.6875 22.0781 32.75 21.1406 32.7344 20.2188C32.7031 18.5469 32.4531 16.875 31.9844 15.2813C31.5625 13.875 30.9844 12.5313 30.25 11.2656C29.6094 10.1563 28.875 9.125 28.0469 8.15625C27.3594 7.35938 26.625 6.625 25.8438 5.9375C25.2969 5.46875 24.7187 5.01563 24.125 4.59375C23.8906 4.42188 23.6406 4.26563 23.3906 4.125L18.9375 0L8.85938 0C3.96875 0 0 3.95313 0 8.84375L0 16.7344L5.9375 22.5781C14.9063 35.7656 24.7969 31.5 24.7969 31.5C24.7969 31.5 29.0156 35.25 32.7188 33.75Z" fill="url(#paint1_linear_23_15)"/>
<path d="M5.9375 22.6094C14.9063 35.7969 24.7969 31.5313 24.7969 31.5313C24.7969 31.5313 29.0313 35.2813 32.7344 33.7656C32.7344 33.7656 30.1406 32.2188 30.1406 29.625C30.1406 27.125 32.7344 25.6562 32.7344 20.625C32.7344 9.42187 23.375 4.125 23.375 4.125C30.0156 14.2187 25.3125 21.1094 25.3125 21.1094C22.6719 16.5625 10.0469 6.89062 10.0469 6.89062C17.2188 15.3125 19.1094 18.9531 19.1094 18.9531C17.3125 16.7812 8.53125 10.6875 8.53125 10.6875C13.4688 15.5625 20.3594 25.25 20.3594 25.25C12.7344 28 5.9375 22.6094 5.9375 22.6094Z" fill="white"/>
</g>
<defs>
<linearGradient id="paint0_linear_23_15" x1="-1.42734" y1="23.7955" x2="41.4322" y2="16.2381" gradientUnits="userSpaceOnUse">
<stop stop-color="#FAAE42"/>
<stop offset="1" stop-color="#EF3E31"/>
</linearGradient>
<linearGradient id="paint1_linear_23_15" x1="0.64625" y1="20.4081" x2="32.0145" y2="14.877" gradientUnits="userSpaceOnUse">
<stop stop-color="#E39F3A"/>
<stop offset="1" stop-color="#D33929"/>
</linearGradient>
<clipPath id="clip0_23_15">
<rect width="40" height="40" fill="white" transform="matrix(0 1 1 0 0 0)"/>
</clipPath>
</defs>
</svg>
